<?xml version="1.0" encoding="UTF-8"?>
<svg id="Capa_3" data-name="Capa 3" xmlns="http://www.w3.org/2000/svg" viewBox="0 0 1314 398.25">
  <defs>
    <style>
      .cls-1 {
        fill: #fff;
      }
    </style>
  </defs>
  <path class="cls-1" d="M1330.43,273.26h-192.22c-3.67,0-7.34-.04-11,.02-3.22,.05-6.49-.05-9.63-.82-3.12-.77-6.14-2.02-8.95-3.58-2.94-1.63-5.87-3.78-8.05-6.37-1.07-1.27-1.92-2.77-2.17-4.42-.25-1.65-.51-3.34-1.27-4.83-.67-1.31-.96-2.77-1.1-4.23-.07-.72-.03-1.46-.13-2.17-.1-.69-.34-1.41-.52-2.09-.61-2.27-1.49-4.45-2.43-6.6-1.01-2.31-2.15-4.55-3.37-6.75-.63-1.13-1.22-2.29-1.94-3.36-.65-.98-1.36-1.96-1.71-3.1-.44-1.42-.28-3-.34-4.46-.06-1.75-.13-3.51-.18-5.26-.08-2.33-.16-4.66-.24-6.99-.03-1.02-.03-2.04-.11-3.05-.11-1.59,0-3.18-.28-4.77-.26-1.45-.9-2.76-1.5-4.09-.48-1.07-.71-2.06-.65-3.23,.06-1.17,.12-2.36-.01-3.52-.2-1.75-1.31-3.36-2.38-4.7-.66-.83-1.37-1.66-2.17-2.36-.71-.63-1.5-1.24-1.91-2.12-.5-1.06-.43-2.44-.56-3.59-.17-1.51-.35-3.03-.58-4.53-.45-2.99-2.37-5.4-4.76-7.13-3.96-2.86-9.39-4.61-14.23-4.8-1.66-.07-3.3-.3-4.89-.83-1.7-.57-3.33-1.47-4.55-2.81-.44-.49-1.19-1.33-1.19-2.05,0-.7-1.79-22.09-1.79-22.09-.67-3.97-4.35-7.73-8.5-7.87-3.76-.13-7.54-.03-11.3-.05-2.57-.01-5.14-.03-7.72-.04-2.5-.01-5-.03-7.5-.05-2.49-.02-4.99-.09-7.48,0-2.59,.1-5.19,.15-7.78-.13-.07,0-.13-.01-.2-.02-3.33-.39-6.57-1.29-9.88-1.8-3.31-.51-6.71-.69-10.05-.96-2.32-.19-4.64-.36-6.96-.5-.91-.01-1.83-.02-2.74-.03-2.89-.03-5.78-.07-8.66-.1-4.03-.05-8.05-.09-12.08-.14-4.3-.05-8.59-.1-12.89-.15-3.7-.04-7.4-.09-11.1-.13-3.26-.04-6.47,.02-9.7-.54-3.25-.57-6.43-1.45-9.7-1.95-.58-.09-1.16-.17-1.75-.23-3.44-.38-6.92-.37-10.37-.24-3.42,.13-6.82,.25-10.24,.45-10.47,1.21-11.17,8.04-11.17,8.04v21.83c-.96,2.74-11.81,6.64-11.81,6.64-2.43,.64-4.85,.13-10.4-.32-2.1-.17-4,.86-5.45,2.32-.9,.9-1.69,1.89-2.33,2.98-.62,1.05-.71,2.2-1.16,3.32-.51,1.26-1.66,2.24-2.87,2.81-2.25,1.06-4.01,3.04-5.48,5-1.57,2.08-2.89,4.34-4.09,6.65-.52,1-.99,2.02-1.49,3.02-.55,1.1-.83,2.3-1.55,3.32-.64,.9-1.51,1.67-2.27,2.43-.7,.7-1.42,1.37-2.15,2.05-5.02,4.68-10.18,9.23-15.07,14.06-.32,.31-.65,.63-1.06,.79-.26,.1-2.46,.12-2.46-.37,0-1.3,.49-3.51-.43-4.53-.99-1.09-2.89-1.49-4.25-1.9-2.06-.62-4.21-.91-6.35-1.08-4.5-.36-9.32-.34-13.74,.68-3.68,.85-8.04,2.66-10.82,5.3-1.17,1.11-1.98,2.54-2.47,4.07-.39,1.22-.58,2.5-.62,3.77,0,.2,.18,1.48,.05,1.61-.26,.26-3.89,.96-8.81-1.6-1.79-.93-3.97-1.12-5.95-1.22-2.35-.12-4.71-.02-7.05,.17-.96,.08-1.91,.17-2.86,.28-1.17,.14-2.4,.19-3.51,.64-.75,.31-1.39,.83-1.99,1.36-.83,.73-1.49,1.88-2.65,2.08-.38,.07-.77,.04-1.14-.05-.78-.18-1.44-.65-2.21-.87-.66-.2-1.35-.25-2.03-.16-.7,.1-1.28,.37-1.89,.7-.45,.24-.87,.54-1.3,.83-2.44,1.66-4.8,3.41-7.25,5.05-.91,.62-1.73,1.38-2.48,2.19-.15,.18-.32,.35-.47,.53-.52,.6-1.01,1.22-1.46,1.87-.9,1.27-1.67,2.62-2.34,4.03-.33,.69-.55,1.47-.91,2.14-.12,.22-.16,.15-.42,.15-.2,0-.4,.01-.6,.04-.4,.05-.79,.15-1.17,.28-.68,.22-1.34,.53-2,.79-.16,.06-.32,.13-.49,.15-.13,.02-.26,.02-.38,.02-1.5,0-3,0-4.49,0h-10.68v-9.06h8.81l-17.94-10.47v-6.51h6.06l-16.72-20.3h-14.36c-2.87-1.21-2.55-2.62-2.55-2.62v-18.26h5.11l-15.51-12.96v-6.06s3.63,0,3.63,0v-2.36s-3.6-.01-3.6-.01v-3.38h-3.91s0,3.45,0,3.45h-3.1c-.3,.01-.53,.25-.53,.55v1.37c0,.22,.18,.39,.39,.39h2.95c.2,0,.36,.16,.36,.36v4.85c0,.34-.14,.66-.4,.88l-14.65,12.99c-.07,.06-.03,.19,.07,.19h6.87c.17,0,.32,.14,.32,.32v17.1c0,.81-.18,1.62-.59,2.32-.29,.5-.63,.96-.91,1.29-.29,.35-.72,.55-1.18,.55h-36.22c-.44,0-.85,.17-1.16,.48l-17.85,17.85c-.09,.09-.03,.24,.1,.24h6.92c.22,0,.39,.18,.39,.39v6.2c0,.19-.08,.37-.23,.49l-12.39,10.41s-.02,.12,.04,.12h5.17c.07,0,.13,.05,.13,.13v7.67c0,.8-.5,1.52-1.25,1.78-2.05,.71-5.5,2.65-6.79,3.4-.35,.2-.72,.36-1.11,.46-3.42,.84-6,.33-6.8,.13-.16-.04-.26-.18-.26-.34v-3.64c0-.07,.06-.14,.14-.14h3.9c.14,0,.2-.19,.08-.27l-14.09-9.52c-.33-.22-.71-.34-1.1-.34h-12.11c-.13,0-.23-.1-.23-.23v-3.64c0-.12-.1-.22-.22-.22h-3.08c-.1,0-.19,.08-.19,.19v4.26c0,.17-.07,.34-.2,.46l-9.7,9.16c-.05,.05-.02,.14,.06,.14h4.51c.17,0,.31,.14,.31,.31v6.09c0,.39-.23,.73-.59,.87-1.96,.76-6.13,3.05-7.53,3.83-.32,.18-.67,.27-1.03,.27h-8.5c-.49,0-.98-.09-1.44-.26-.81-.31-2.21-.74-3.05-.99-.4-.12-.67-.49-.67-.91v-6.34c0-.17,.14-.31,.31-.31h2.27c.11,0,.17-.14,.09-.22l-9.89-9.77c-.23-.23-.54-.35-.86-.35h-2.48c-.19,0-.38,.07-.52,.19l-11.13,9.53c-.07,.06-.03,.19,.07,.19h3.91c.25,0,.44,.2,.44,.44v5.2c0,.58-.23,1.14-.65,1.54l-11.75,11.51c-.15,.15-.36,.23-.57,.23h-9.74c-.41,0-.8-.19-1.05-.52-.75-.99-2.61-2.97-3.32-3.71-.18-.19-.28-.44-.28-.7v-3.25c0-.12,.1-.22,.22-.22h3.31c.12,0,.16-.15,.06-.21l-12.35-8.18c-.11-.07-.26-.08-.37,0l-5.52,4.1c-.09,.07-.21,.1-.2-.02v-3.31c0-.16-.14-.3-.3-.3h-1.75c-.11,0-.21,.09-.21,.21v4.14c0,.13,.03,1.04-.06,1.14l-3.18,2.3c-.06,.06-.02,.17,.07,.17h3.09c.09,0,.16,.07,.16,.16v3.11c0,.07-.06,.13-.13,.13-.74,0-4.51,0-6.31,0-.78,0-1.55,.11-2.3,.33-4.06,1.23-6.95,4.13-7.68,4.91-.12,.13-.29,.2-.46,.2h-11.5c-.07,0-.13-.06-.13-.13v-4.81c0-.16,.13-.3,.3-.3h3.69c.08,0,.13-.1,.07-.16l-11.14-11.14c-.23-.23-.53-.35-.85-.35h-4.1c-.24,0-.47,.1-.64,.27l-11.25,11.29s-.01,.1,.04,.1h2.77c.13,0,.24,.11,.24,.24v3.19c0,.37-.15,.73-.42,.98-3.5,3.16-6.05,1.09-7.18-.28-.42-.5-.65-1.13-.65-1.78v-10.28c0-.75-.36-1.46-.96-1.91-3.36-2.52-6.6,.89-6.6,.89-3.26,2.63-5.6,1.97-7.13,.65-1.5-1.29-2.25-3.26-2.25-5.24v-14.9c0-.08,.06-.14,.14-.14h4.76c.08,0,.11-.11,.03-.15l-19.59-9.48c-.09-.04-.15-.14-.15-.24v-15.89c0-.08,.07-.15,.15-.15h4.14c.13,0,.17-.18,.06-.24l-14.95-7.65c-.28-.15-.46-.44-.47-.76l-.06-4.57c0-.38,.03-.36,.27-.36h5.28c.15,0,.19-.04,.12-.1l-12.67-10.48c-.27-.2-.43-.52-.44-.85l-.06-1.96c0-.24,.19-.45,.43-.45h2.56c.07,0,.1-.09,.05-.14l-5.35-4.17c-.15-.12-.37-.12-.53,0,0,0-4.54,3.48-5.53,4.24-.12,.09-.02,.15-.02,.15h2.58c.37,0,.67,.3,.67,.67v1.37c0,.49-.22,.94-.61,1.24l-13,10.07c-.18,.14-.08,.44,.15,.44h4.34c.45,0,.81,.36,.81,.81v4.5c0,.27-.14,.51-.37,.65l-16.88,9.98c-.07,.04-.04,.14,.04,.14h4.55c.29,0,.53,.23,.53,.52v12.39c0,.29-.21,.53-.49,.57-19.76,3.11-53.16,20.92-57.09,23.04-.1,.06-.06,.21,.06,.21h5.38c.24,0,.44,.2,.44,.44v6.75c0,.24-.11,.47-.31,.62l-14.34,10.87s-.02,.09,.03,.09h4.5c.27,0,.49,.22,.49,.49v10.05c0,.26-.21,.47-.47,.47h-2.21c-.68,0-3.49-4.72-3.49-4.72-1.13-1.4-2.23-1.49-3.06-1.22-.76,.24-1.31,.87-1.62,1.6-1.31,3.07-6.28,9.08-9.67,13-2.05,2.36-5.01,3.72-8.14,3.71-31.64-.11-224.7-.68-224.7,.02v147.83H1331.32v-148.09h-.89Z"/>
</svg>